# xmcd
#
# Track frame offsets:
#       150
#       22912
#       62437
#       90325
#       110625
#       137512
#       160262
#       184850
#       210987
#       228212
#       262425
#       291150
#       315500
#       329675
#
# Disc length: 4428 seconds
#
# Revision: 2
# Processed by: cddbd v1.5.2PL0 Copyright (c) Steve Scherf et al.
# Submitted via: FreeDbEdit v0.1
#
DISCID=c0114a0e
DTITLE=The Rolling Stones - Voodoo Lounge Sessions [CD2]
DYEAR=1900
DGENRE=Rock
TTITLE0=Alright Charlie
TTITLE1=It's Alright/Untitled
TTITLE2=Hold on You
TTITLE3=Ivy Leaque
TTITLE4=Get It Made
TTITLE5=Jump on Top of Me
TTITLE6=I'm Gonna Drive
TTITLE7=What Gives You the Light
TTITLE8=Untitled
TTITLE9=Make It Now
TTITLE10=It's Funny
TTITLE11=Untitled
TTITLE12=Alright Charlie
TTITLE13=Dialoque by Keith
EXTD=
EXTT0=
EXTT1=
EXTT2=
EXTT3=
EXTT4=
EXTT5=
EXTT6=
EXTT7=
EXTT8=
EXTT9=
EXTT10=
EXTT11=
EXTT12=
EXTT13=
PLAYORDER=
